<svg id="Layer_2" height="512" viewBox="0 0 512 512" width="512" xmlns="http://www.w3.org/2000/svg" xmlns:xlink="http://www.w3.org/1999/xlink" data-name="Layer 2"><linearGradient id="linear-gradient" gradientUnits="userSpaceOnUse" x1="43.93" x2="468.07" y1="43.93" y2="468.07"><stop offset="0" stop-color="#ff386a"/><stop offset="1" stop-color="#ab2343"/></linearGradient><g id="Icon"><path id="v" d="m362 0h-212c-82.84 0-150 67.16-150 150v212c0 82.84 67.16 150 150 150h212c82.84 0 150-67.16 150-150v-212c0-82.84-67.16-150-150-150zm100 362c0 55.14-44.86 100-100 100h-212c-55.14 0-100-44.86-100-100v-212c0-55.14 44.86-100 100-100h212c55.14 0 100 44.86 100 100zm-239.45 24.74-99.61-261.48h75.93l57.13 163.09 56.88-163.09h76.17l-99.61 261.47h-66.89z" fill="url(#linear-gradient)"/></g></svg>