<svg id="Layer_1" enable-background="new 0 0 512 512" height="300" viewBox="0 0 512 512" width="300" xmlns="http://www.w3.org/2000/svg" xmlns:xlink="http://www.w3.org/1999/xlink" version="1.1" xmlns:svgjs="http://svgjs.dev/svgjs"><g width="100%" height="100%" transform="matrix(1,0,0,1,0,0)"><linearGradient id="V_1_" gradientTransform="matrix(1 0 0 -1 0 514)" gradientUnits="userSpaceOnUse" x1="1" x2="511" y1="258" y2="258"><stop offset="0" stop-color="#fc1d29"/><stop offset=".05" stop-color="#fc292e"/><stop offset=".29" stop-color="#fb5d43"/><stop offset=".5" stop-color="#fa8452"/><stop offset=".66" stop-color="#f99b5c"/><stop offset=".76" stop-color="#f9a45f"/></linearGradient><g id="Layer_2_1_"><g id="Layer_1-2"><path id="V" d="m289.3 218.9-33.4 90-32.8-90-31.1-78.7h-59.9l95.3 231.6h57.2l95.3-231.6h-59.9zm147-143.2c-99.1-100.1-260.5-100.9-360.6-1.8s-100.9 260.5-1.8 360.6l1.8 1.8c99.1 100.1 260.5 100.9 360.6 1.8s100.9-260.5 1.8-360.6c-.6-.6-1.2-1.2-1.8-1.8zm-180.3 422.3c-133.7 0-242-108.4-242-242s108.3-242 242-242 242 108.3 242 242-108.4 242-242 242z" fill="#e41e25" data-original-color="V_1_" stroke="none" stroke-opacity="1" fill-opacity="1"/></g></g></g></svg>